<?xml version="1.0" encoding="UTF-8" standalone="no"?><!DOCTYPE svg PUBLIC "-//W3C//DTD SVG 1.1//EN" "http://www.w3.org/Graphics/SVG/1.1/DTD/svg11.dtd"><svg width="100%" height="100%" viewBox="0 0 171 150" version="1.1" xmlns="http://www.w3.org/2000/svg" xmlns:xlink="http://www.w3.org/1999/xlink" xml:space="preserve" xmlns:serif="http://www.serif.com/" style="fill-rule:evenodd;clip-rule:evenodd;stroke-linejoin:round;stroke-miterlimit:2;"><g><path d="M125.56,30.939c11.725,11.846 18.011,25.989 18.857,42.428l7.253,0c2.66,0 5.077,0.907 7.253,2.72l-0.181,-0.181c2.175,1.692 3.566,3.626 4.17,5.802l-0,0.907c-0,2.417 -0.725,4.593 -2.176,6.527l-0.181,0.182l-23.209,24.659c-1.451,1.571 -3.445,2.659 -5.984,3.264l-6.165,-0.182l0,0.182l-5.439,-3.264l0.181,-0l-23.209,-24.659c-2.176,-2.176 -3.022,-4.594 -2.538,-7.253l0.181,-0c0.242,-2.297 1.451,-4.291 3.627,-5.984c1.934,-1.813 4.412,-2.72 7.434,-2.72l7.071,0c-0.725,-7.494 -3.928,-14.082 -9.61,-19.763c-6.648,-6.649 -14.505,-9.973 -23.571,-9.973c-9.066,-0 -16.924,3.324 -23.572,9.973l0.181,-0c-6.527,6.527 -9.791,14.324 -9.791,23.39c0,8.945 3.324,16.742 9.973,23.39l0.181,0c6.286,6.648 13.962,9.973 23.028,9.973c4.472,-0 8.28,1.571 11.423,4.714c3.022,2.901 4.533,6.648 4.533,11.242c-0,4.472 -1.451,8.28 -4.352,11.423l-0.181,0.181c-3.143,2.901 -6.951,4.352 -11.423,4.352c-17.528,-0 -32.819,-6.346 -45.874,-19.039l-0,-0.181c-12.813,-12.934 -19.22,-28.286 -19.22,-46.055c-0,-18.011 6.407,-33.363 19.22,-46.055c13.055,-12.814 28.346,-19.22 45.874,-19.22c18.011,-0 33.423,6.406 46.236,19.22" style="fill:#ffbe26;fill-rule:nonzero;stroke:#000;stroke-width:12.29px;"/></g></svg>